<?xml version="1.0"?>
<svg width="1999.9999999999998" height="999.9999999999999" xmlns="http://www.w3.org/2000/svg" xmlns:svg="http://www.w3.org/2000/svg">
 <!-- Created with SVG-edit - https://github.com/SVG-Edit/svgedit-->
 <g class="layer" display="inline">
  <title>Layer 1</title>
  <line fill="none" id="svg_11" stroke="#000000" stroke-width="5" x1="268.53" x2="1601.51" y1="370.38" y2="370.38"/>
  <line fill="none" id="svg_12" stroke="#000000" stroke-width="5" x1="1698.05" x2="1852.94" y1="93.28" y2="93.28"/>
  <g id="svg_29" transform="translate(0 -0.561798) translate(0 -0.561798) matrix(1 0 0 1 460.975 -178.705)">
   <g id="svg_15" transform="translate(-4 0) matrix(0.294118 0 0 0.294118 304.824 503.824)">
    <rect fill="#ff0000" height="85" id="svg_13" stroke="#000000" stroke-opacity="0" width="85" x="157" y="259"/>
    <text fill="#ffffff" font-family="Helvetica" font-size="63" id="svg_14" stroke="#000000" stroke-width="0" text-anchor="middle" x="200" xml:space="preserve" y="324">R</text>
   </g>
   <line fill="none" id="svg_17" stroke="#000000" stroke-opacity="0" x1="357" x2="407" y1="575" y2="583"/>
   <line fill="none" id="svg_24" stroke="#000000" x1="360" x2="360" y1="551" y2="580"/>
   <path d="m345,730l30,0l-15.06,40l-14.94,-40z" fill="#ff0000" id="svg_26" stroke="#000000" stroke-opacity="0"/>
   <line fill="none" id="svg_28" stroke="#000000" x1="360" x2="360" y1="730" y2="605"/>
  </g>
  <g id="svg_30" transform="translate(0 0.561798) translate(0 0.561798) translate(0 0.561798) translate(0 0.561798) translate(0 0.561798) translate(0 0.561798) translate(0 0.561798) translate(22.973 -2.7027) matrix(1 0 0 1 618.425 -181.166)">
   <g id="svg_31" transform="translate(-4 0) matrix(0.294118 0 0 0.294118 304.824 503.824)">
    <rect fill="#ff0000" height="85" id="svg_32" stroke="#000000" stroke-opacity="0" width="85" x="157" y="259"/>
    <text fill="#ffffff" font-family="Helvetica" font-size="63" id="svg_33" stroke="#000000" stroke-width="0" text-anchor="middle" x="200" xml:space="preserve" y="324">R</text>
   </g>
   <line fill="none" id="svg_34" stroke="#000000" stroke-opacity="0" x1="357" x2="407" y1="575" y2="583"/>
   <line fill="none" id="svg_35" stroke="#000000" x1="360" x2="360" y1="551" y2="580"/>
   <path d="m345,730l30,0l-15.06,40l-14.94,-40z" fill="#ff0000" id="svg_36" stroke="#000000" stroke-opacity="0"/>
   <line fill="none" id="svg_37" stroke="#000000" x1="360" x2="360" y1="730" y2="605"/>
  </g>
  <g id="svg_38" transform="translate(44.5946 1.35135) translate(-1.68067 3.78151) matrix(1 0 0 1 766.118 -184.795)">
   <g id="svg_39" transform="translate(-4 0) matrix(0.294118 0 0 0.294118 304.824 503.824)">
    <rect fill="#ff0000" height="85" id="svg_40" stroke="#000000" stroke-opacity="0" width="85" x="157" y="259"/>
    <text fill="#ffffff" font-family="Helvetica" font-size="63" id="svg_41" stroke="#000000" stroke-width="0" text-anchor="middle" x="200" xml:space="preserve" y="324">R</text>
   </g>
   <line fill="none" id="svg_42" stroke="#000000" stroke-opacity="0" x1="357" x2="407" y1="575" y2="583"/>
   <line fill="none" id="svg_43" stroke="#000000" x1="360" x2="360" y1="551" y2="580"/>
   <path d="m345,730l30,0l-15.06,40l-14.94,-40z" fill="#ff0000" id="svg_44" stroke="#000000" stroke-opacity="0"/>
   <line fill="none" id="svg_45" stroke="#000000" x1="360" x2="360" y1="730" y2="605"/>
  </g>
  <text fill="#000000" font-family="Helvetica" font-size="18" id="svg_46" stroke="#000000" stroke-width="0" text-anchor="middle" x="743.12" xml:space="preserve" y="418.11">UMP04VR-01</text>
  <text fill="#000000" font-family="Helvetica" font-size="18" font-weight="bold" id="svg_47" stroke="#000000" stroke-width="0" text-anchor="middle" x="821.97" xml:space="preserve" y="613.82">PALATHA</text>
  <text fill="#000000" font-family="Helvetica" font-size="18" id="svg_48" stroke="#000000" stroke-width="0" text-anchor="middle" x="929" xml:space="preserve" y="418.22">UMP03VR-01</text>
  <text fill="#000000" font-family="Helvetica" font-size="18" id="svg_49" stroke="#000000" stroke-width="0" text-anchor="middle" x="1095.67" xml:space="preserve" y="418.58">UMP02VR-01</text>
  <text fill="#000000" font-family="Helvetica" font-size="18" id="svg_50" stroke="#000000" stroke-width="0" text-anchor="middle" x="1325.99" xml:space="preserve" y="418.96">UMP01VR-01</text>
  <text fill="#000000" font-family="Helvetica" font-size="18" font-weight="bold" id="svg_51" stroke="#000000" stroke-width="0" text-anchor="middle" x="999.76" xml:space="preserve" y="612.47">KIO HANG</text>
  <text fill="#000000" font-family="Helvetica" font-size="18" font-weight="bold" id="svg_52" stroke="#000000" stroke-width="0" text-anchor="middle" x="1205.46" xml:space="preserve" y="616.12">NONG LUANG - MAE CHAN</text>
  <g id="svg_53" transform="translate(0 -0.561798) translate(0 -0.561798) translate(0 -0.561798) translate(0 -0.561798) translate(0 -0.561798) translate(41.8919 2.7027) matrix(1 0 0 1 1003.92 -180.272)">
   <g id="svg_54" transform="translate(-4 0) matrix(0.294118 0 0 0.294118 304.824 503.824)">
    <rect fill="#ff0000" height="85" id="svg_55" stroke="#000000" stroke-opacity="0" width="85" x="157" y="259"/>
    <text fill="#ffffff" font-family="Helvetica" font-size="63" id="svg_56" stroke="#000000" stroke-width="0" text-anchor="middle" x="200" xml:space="preserve" y="324">R</text>
   </g>
   <line fill="none" id="svg_57" stroke="#000000" stroke-opacity="0" x1="357" x2="407" y1="575" y2="583"/>
   <line fill="none" id="svg_58" stroke="#000000" x1="360" x2="360" y1="551" y2="580"/>
   <path d="m345,730l30,0l-15.06,40l-14.94,-40z" fill="#ff0000" id="svg_59" stroke="#000000" stroke-opacity="0"/>
   <line fill="none" id="svg_60" stroke="#000000" x1="360" x2="360" y1="730" y2="605"/>
  </g>
  <text fill="#000000" font-family="Helvetica" font-size="18" font-weight="bold" id="svg_61" stroke="#000000" stroke-width="0" text-anchor="middle" x="1406.34" xml:space="preserve" y="617.69">YAMO</text>
  <line fill="none" id="svg_1" stroke="#000000" stroke-width="5" x1="1344.04" x2="1791.85" y1="799.73" y2="799.73">หนองหลวง-แม่จัน</line>
  <g id="svg_70" transform="translate(-80.4878 4.87805) translate(1.35135 193.243) translate(0 -156.667) matrix(1 0 0 1 541.463 -24.3902)">
   <g id="svg_5" transform="translate(-0.254453 -0.381679) matrix(0.48853 0 0 0.48853 820.175 700.821)">
    <ellipse cx="164" cy="454" fill="#ff0000" id="svg_6" rx="45" ry="45" stroke="#000000" stroke-opacity="0" stroke-width="5"/>
    <text fill="#ffffff" font-family="Helvetica" font-size="51" font-weight="bold" id="svg_7" stroke="#ffffff" stroke-width="0" text-anchor="middle" x="164" xml:space="preserve" y="474">G</text>
   </g>
   <rect fill="#ff0000" height="85" id="svg_19" stroke="#000000" stroke-opacity="0" transform="matrix(0.294118 0 0 0.294118 880.137 591.145)" width="85" x="25.2" y="776.56"/>
   <line fill="none" id="svg_65" stroke="#000000" x1="900.13" x2="900.13" y1="844.63" y2="900.13"/>
   <line fill="none" id="svg_69" stroke="#000000" x1="900.33" x2="900.33" y1="786.37" y2="819.67"/>
  </g>
  <g id="svg_71" transform="translate(-80.4878 4.87805) translate(1.35135 193.243) translate(-13.5135 -20.2703) translate(14.8649 18.9189) translate(4.87805 -131.707) translate(19.5122 131.707) translate(0 -156.667) translate(541.463 -24.3902) matrix(1 0 0 1 89.7111 -0.430192)">
   <g id="svg_72" transform="translate(-0.254453 -0.381679) matrix(0.48853 0 0 0.48853 820.175 700.821)">
    <ellipse cx="164" cy="454" fill="#ff0000" id="svg_73" rx="45" ry="45" stroke="#000000" stroke-opacity="0" stroke-width="5"/>
    <text fill="#ffffff" font-family="Helvetica" font-size="51" font-weight="bold" id="svg_74" stroke="#ffffff" stroke-width="0" text-anchor="middle" x="164" xml:space="preserve" y="474">G</text>
   </g>
   <rect fill="#ff0000" height="85" id="svg_75" stroke="#000000" stroke-opacity="0" transform="matrix(0.294118 0 0 0.294118 880.137 591.145)" width="85" x="25.2" y="776.56"/>
   <line fill="none" id="svg_76" stroke="#000000" x1="900.13" x2="900.13" y1="844.63" y2="900.13"/>
   <line fill="none" id="svg_77" stroke="#000000" x1="900.33" x2="900.33" y1="786.37" y2="819.67"/>
  </g>
  <g id="svg_78" transform="translate(-80.4878 4.87805) translate(1.35135 193.243) translate(-13.5135 -20.2703) translate(14.8649 18.9189) translate(4.87805 -131.707) translate(19.5122 131.707) translate(0 -156.667) translate(541.463 -24.3902) matrix(1 0 0 1 179.918 -3.12273)">
   <g id="svg_79" transform="translate(-0.254453 -0.381679) matrix(0.48853 0 0 0.48853 820.175 700.821)">
    <ellipse cx="164" cy="454" fill="#ff0000" id="svg_80" rx="45" ry="45" stroke="#000000" stroke-opacity="0" stroke-width="5"/>
    <text fill="#ffffff" font-family="Helvetica" font-size="51" font-weight="bold" id="svg_81" stroke="#ffffff" stroke-width="0" text-anchor="middle" x="164" xml:space="preserve" y="474">G</text>
   </g>
   <rect fill="#ff0000" height="85" id="svg_82" stroke="#000000" stroke-opacity="0" transform="matrix(0.294118 0 0 0.294118 880.137 591.145)" width="85" x="25.2" y="776.56"/>
   <line fill="none" id="svg_83" stroke="#000000" x1="900.13" x2="900.13" y1="844.63" y2="900.13"/>
   <line fill="none" id="svg_84" stroke="#000000" x1="900.33" x2="900.33" y1="786.37" y2="819.67"/>
  </g>
  <g id="svg_85" transform="translate(-80.4878 4.87805) translate(10.101 192.929) translate(15.7303 1.1236) matrix(1 0 0 1 828.021 -183.846)">
   <g id="svg_86" transform="translate(-0.254453 -0.381679) matrix(0.48853 0 0 0.48853 820.175 700.821)">
    <ellipse cx="164" cy="454" fill="#ff0000" id="svg_87" rx="45" ry="45" stroke="#000000" stroke-opacity="0" stroke-width="5"/>
    <text fill="#ffffff" font-family="Helvetica" font-size="51" font-weight="bold" id="svg_88" stroke="#ffffff" stroke-width="0" text-anchor="middle" x="164" xml:space="preserve" y="474">G</text>
   </g>
   <rect fill="#ff0000" height="85" id="svg_89" stroke="#000000" stroke-opacity="0" transform="matrix(0.294118 0 0 0.294118 880.137 591.145)" width="85" x="25.2" y="776.56"/>
   <line fill="none" id="svg_90" stroke="#000000" x1="900.13" x2="900.13" y1="844.63" y2="900.13"/>
   <line fill="none" id="svg_91" stroke="#000000" x1="900.33" x2="900.33" y1="786.37" y2="819.67"/>
  </g>
  <g id="svg_92" transform="translate(-80.4878 4.87805) translate(46.0674 -1.1236) matrix(1 0 0 1 893.705 12.6217)">
   <g id="svg_93" transform="translate(-0.254453 -0.381679) matrix(0.48853 0 0 0.48853 820.175 700.821)">
    <ellipse cx="164" cy="454" fill="#ff0000" id="svg_94" rx="45" ry="45" stroke="#000000" stroke-opacity="0" stroke-width="5"/>
    <text fill="#ffffff" font-family="Helvetica" font-size="51" font-weight="bold" id="svg_95" stroke="#ffffff" stroke-width="0" text-anchor="middle" x="164" xml:space="preserve" y="474">G</text>
   </g>
   <rect fill="#ff0000" height="85" id="svg_96" stroke="#000000" stroke-opacity="0" transform="matrix(0.294118 0 0 0.294118 880.137 591.145)" width="85" x="25.2" y="776.56"/>
   <line fill="none" id="svg_97" stroke="#000000" x1="900.13" x2="900.13" y1="844.63" y2="900.13"/>
   <line fill="none" id="svg_98" stroke="#000000" x1="900.33" x2="900.33" y1="786.37" y2="819.67"/>
  </g>
  <line fill="none" id="svg_104" stroke="#000000" x1="1568.83" x2="1568.83" y1="431.04" y2="614.69"/>
  <line fill="none" id="svg_110" stroke="#000000" x1="1568.47" x2="1568.47" y1="716.19" y2="799.81"/>
  <rect fill="#ff0000" height="85" id="svg_112" stroke="#000000" stroke-opacity="0" transform="matrix(0.294118 0 0 0.294118 880.137 591.145) matrix(1 0 0 1 1084.24 -751.173)" width="85" x="1210.69" y="1309.08"/>
  <line fill="none" id="svg_156" stroke="#000000" x1="420.86" x2="420.86" y1="270.06" y2="328.43"/>
  <line fill="none" id="svg_157" stroke="#000000" x1="420.55" x2="420.55" y1="353.73" y2="368.17"/>
  <circle cx="421.09" cy="269.57" fill="#000000" id="svg_158" r="4.07" stroke="#000000"/>
  <g id="svg_180" transform="translate(-80.4878 4.87805) translate(1140 206.667) translate(7.31707 0) matrix(1 0 0 1 -658.537 60.9756) matrix(1 0 0 1 -487.805 226.829)">
   <g id="svg_18" transform="translate(150 13.5135) matrix(1 0 0 1 -140.909 -495.455)">
    <rect fill="#ff0000" height="158.28" id="svg_4" stroke="#000000" stroke-opacity="0" transform="matrix(0.376695 0 0 0.494095 232.35 763.205)" width="173.23" x="223.61" y="254.37">~=</rect>
    <text fill="#000000" font-family="Helvetica" font-size="119.08" id="svg_10" stroke="#000000" stroke-width="0" text-anchor="middle" transform="matrix(0.376695 0 0 0.376695 375.068 636.09) matrix(1 0 0 1 -378.869 466.499)" x="271.36" xml:space="preserve" y="354.33"/>
    <path d="m349.45,931.12l9.79,0l-14.68,22.3l0,-17.34l-9.79,0l14.68,-22.3l0,17.34z" fill="#ffffff" id="svg_3" stroke="red"/>
    <text fill="#ffffff" font-family="Helvetica" font-size="33.59" id="svg_9" stroke="red" stroke-width="0" text-anchor="middle" x="348.27" xml:space="preserve" y="913.96">+</text>
    <text fill="#ffffff" font-family="Helvetica" font-size="33.59" id="svg_16" stroke="red" stroke-width="0" text-anchor="middle" x="347.62" xml:space="preserve" y="970.12">-</text>
   </g>
   <line fill="none" id="svg_175" stroke="#000000" x1="359.94" x2="359.94" y1="359.4" y2="406.72"/>
   <rect fill="#ff0000" height="85" id="svg_178" stroke="#000000" stroke-opacity="0" transform="matrix(0.294118 0 0 0.294118 880.137 591.145) matrix(1 0 0 1 -1836.4 -1541.66)" width="85" x="25.2" y="776.56"/>
  </g>
  <g id="svg_181" transform="translate(-80.4878 4.87805) translate(1140 206.667) translate(7.31707 0) translate(4.87805 -2.43902) matrix(1 0 0 1 -521.708 61.6824) matrix(1 0 0 1 -487.805 226.829)">
   <g id="svg_182" transform="translate(150 13.5135) matrix(1 0 0 1 -140.909 -495.455)">
    <rect fill="#ff0000" height="158.28" id="svg_183" stroke="#000000" stroke-opacity="0" transform="matrix(0.376695 0 0 0.494095 232.35 763.205)" width="173.23" x="223.61" y="254.37">~=</rect>
    <text fill="#000000" font-family="Helvetica" font-size="119.08" id="svg_184" stroke="#000000" stroke-width="0" text-anchor="middle" transform="matrix(0.376695 0 0 0.376695 375.068 636.09) matrix(1 0 0 1 -378.869 466.499)" x="271.36" xml:space="preserve" y="354.33"/>
    <path d="m349.45,931.12l9.79,0l-14.68,22.3l0,-17.34l-9.79,0l14.68,-22.3l0,17.34z" fill="#ffffff" id="svg_185" stroke="red"/>
    <text fill="#ffffff" font-family="Helvetica" font-size="33.59" id="svg_186" stroke="red" stroke-width="0" text-anchor="middle" x="348.27" xml:space="preserve" y="913.96">+</text>
    <text fill="#ffffff" font-family="Helvetica" font-size="33.59" id="svg_187" stroke="red" stroke-width="0" text-anchor="middle" x="347.62" xml:space="preserve" y="970.12">-</text>
   </g>
   <line fill="none" id="svg_188" stroke="#000000" x1="359.94" x2="359.94" y1="359.4" y2="406.72"/>
   <rect fill="#ff0000" height="85" id="svg_189" stroke="#000000" stroke-opacity="0" transform="matrix(0.294118 0 0 0.294118 880.137 591.145) matrix(1 0 0 1 -1836.4 -1541.66)" width="85" x="25.2" y="776.56"/>
  </g>
  <line fill="none" id="svg_120" stroke="#000000" stroke-width="5" x1="51.59" x2="721.01" y1="610.38" y2="610.38">หนองหลวง-แม่จัน</line>
  <text fill="#000000" font-family="Helvetica" font-size="119.08" id="svg_129" stroke="#000000" stroke-width="0" text-anchor="middle" transform="matrix(1 0 0 1 4.87805 -2.43902) matrix(1 0 0 1 -487.805 226.829)" x="1030.7" xml:space="preserve" y="538.47"/>
  <line fill="none" id="svg_20" stroke="red" x1="64.38" x2="64.38" y1="874.8" y2="874.34"/>
  <line fill="none" id="svg_123" stroke="red" x1="213.55" x2="213.55" y1="874.02" y2="873.56"/>
  <line fill="none" id="svg_146" stroke="red" x1="364.06" x2="364.06" y1="873.01" y2="872.55"/>
  <line fill="none" id="svg_173" stroke="#000000" stroke-width="5" x1="84.25" x2="749.22" y1="856.2" y2="856.2">หนองหลวง-แม่จัน</line>
  <g id="svg_190" transform="translate(-80.4878 4.87805) translate(1140 206.667) translate(7.31707 0) translate(-63.4146 97.561) matrix(1 0 0 1 -326.143 -37.3075) matrix(1 0 0 1 -487.805 226.829)">
   <g id="svg_191" transform="translate(150 13.5135) matrix(1 0 0 1 -140.909 -495.455)">
    <rect fill="#ff0000" height="158.28" id="svg_192" stroke="#000000" stroke-opacity="0" transform="matrix(0.376695 0 0 0.494095 232.35 763.205)" width="173.23" x="223.61" y="254.37">~=</rect>
    <text fill="#000000" font-family="Helvetica" font-size="119.08" id="svg_193" stroke="#000000" stroke-width="0" text-anchor="middle" transform="matrix(0.376695 0 0 0.376695 375.068 636.09) matrix(1 0 0 1 -378.869 466.499)" x="271.36" xml:space="preserve" y="354.33"/>
    <path d="m349.45,931.12l9.79,0l-14.68,22.3l0,-17.34l-9.79,0l14.68,-22.3l0,17.34z" fill="#ffffff" id="svg_194" stroke="red"/>
    <text fill="#ffffff" font-family="Helvetica" font-size="33.59" id="svg_195" stroke="red" stroke-width="0" text-anchor="middle" x="348.27" xml:space="preserve" y="913.96">+</text>
    <text fill="#ffffff" font-family="Helvetica" font-size="33.59" id="svg_196" stroke="red" stroke-width="0" text-anchor="middle" x="347.62" xml:space="preserve" y="970.12">-</text>
   </g>
   <line fill="none" id="svg_197" stroke="#000000" x1="359.94" x2="359.94" y1="359.4" y2="406.72"/>
   <rect fill="#ff0000" height="85" id="svg_198" stroke="#000000" stroke-opacity="0" transform="matrix(0.294118 0 0 0.294118 880.137 591.145) matrix(1 0 0 1 -1836.4 -1541.66)" width="85" x="25.2" y="776.56"/>
  </g>
  <g id="svg_204" transform="translate(-80.4878 4.87805) translate(1140 206.667) translate(7.31707 0) translate(-63.4146 97.561) translate(185.366 -412.195) translate(-785.366 378.049) matrix(1 0 0 1 4.87805 -2.43902) matrix(1 0 0 1 -487.805 226.829)">
   <g id="svg_2" transform="translate(4.0404 -95.9596) matrix(0.376695 0 0 0.376695 91.245 207.466)">
    <rect fill="#ff0000" height="158.28" id="svg_122" stroke="#000000" stroke-opacity="0" width="173.23" x="223.61" y="254.37">~=</rect>
    <line fill="none" id="svg_124" stroke="#ffffff" stroke-width="3" x1="223.32" x2="397.02" y1="412.43" y2="254.56"/>
    <text fill="#000000" font-family="Helvetica" font-size="119.08" id="svg_125" stroke="#000000" stroke-width="0" text-anchor="middle" x="347.98" xml:space="preserve" y="412.53">=</text>
    <text fill="#000000" font-family="Helvetica" font-size="119.08" id="svg_126" stroke="#000000" stroke-width="0" text-anchor="middle" x="271.36" xml:space="preserve" y="354.33"/>
    <text fill="#ffffff" font-family="Helvetica" font-size="119.08" id="svg_128" stroke="#000000" stroke-width="0" text-anchor="middle" x="347.98" xml:space="preserve" y="412.53">=</text>
    <text fill="#ffffff" font-family="Helvetica" font-size="130.56" id="svg_130" stroke="#000000" stroke-width="0" text-anchor="middle" x="278.32" xml:space="preserve" y="351.19">~</text>
   </g>
   <line fill="none" id="svg_22" stroke="#000000" x1="213.69" x2="213.69" y1="114.1" y2="207.13"/>
   <line fill="none" id="svg_199" stroke="#000000" x1="213.2" x2="213.13" y1="266.64" y2="357.58"/>
   <rect fill="#ff0000" height="85" id="svg_201" stroke="#000000" stroke-opacity="0" transform="matrix(0.294118 0 0 0.294118 880.137 591.145) matrix(1 0 0 1 -2334.38 -1790.08)" width="85" x="23.06" y="861.03"/>
   <rect fill="#ff0000" height="85" id="svg_203" stroke="#000000" stroke-opacity="0" transform="matrix(0.294118 0 0 0.294118 880.137 591.145) matrix(1 0 0 1 -2334.38 -1790.08)" width="85" x="22.91" y="188.17"/>
  </g>
  <g id="svg_205" transform="translate(-80.4878 4.87805) translate(1140 206.667) translate(7.31707 0) matrix(1 0 0 1 -511.65 59.5953) matrix(1 0 0 1 -487.805 226.829)">
   <g id="svg_206" transform="translate(4.0404 -95.9596) matrix(0.376695 0 0 0.376695 91.245 207.466)">
    <rect fill="#ff0000" height="158.28" id="svg_207" stroke="#000000" stroke-opacity="0" width="173.23" x="223.61" y="254.37">~=</rect>
    <line fill="none" id="svg_208" stroke="#ffffff" stroke-width="3" x1="223.32" x2="397.02" y1="412.43" y2="254.56"/>
    <text fill="#000000" font-family="Helvetica" font-size="119.08" id="svg_209" stroke="#000000" stroke-width="0" text-anchor="middle" x="347.98" xml:space="preserve" y="412.53">=</text>
    <text fill="#000000" font-family="Helvetica" font-size="119.08" id="svg_210" stroke="#000000" stroke-width="0" text-anchor="middle" x="271.36" xml:space="preserve" y="354.33"/>
    <text fill="#ffffff" font-family="Helvetica" font-size="119.08" id="svg_211" stroke="#000000" stroke-width="0" text-anchor="middle" x="347.98" xml:space="preserve" y="412.53">=</text>
    <text fill="#ffffff" font-family="Helvetica" font-size="130.56" id="svg_212" stroke="#000000" stroke-width="0" text-anchor="middle" x="278.32" xml:space="preserve" y="351.19">~</text>
   </g>
   <line fill="none" id="svg_213" stroke="#000000" x1="213.69" x2="213.69" y1="114.1" y2="207.13"/>
   <line fill="none" id="svg_214" stroke="#000000" x1="213.2" x2="213.13" y1="266.64" y2="357.58"/>
   <rect fill="#ff0000" height="85" id="svg_215" stroke="#000000" stroke-opacity="0" transform="matrix(0.294118 0 0 0.294118 880.137 591.145) matrix(1 0 0 1 -2334.38 -1790.08)" width="85" x="23.06" y="861.03"/>
   <rect fill="#ff0000" height="85" id="svg_216" stroke="#000000" stroke-opacity="0" transform="matrix(0.294118 0 0 0.294118 880.137 591.145) matrix(1 0 0 1 -2334.38 -1790.08)" width="85" x="22.91" y="188.17"/>
  </g>
  <g id="svg_217" transform="translate(-80.4878 4.87805) translate(1140 206.667) translate(7.31707 0) matrix(1 0 0 1 -857.563 286.425)">
   <g id="svg_218" transform="translate(4.0404 -95.9596) matrix(0.376695 0 0 0.376695 91.245 207.466)">
    <rect fill="#ff0000" height="158.28" id="svg_219" stroke="#000000" stroke-opacity="0" width="173.23" x="223.61" y="254.37">~=</rect>
    <line fill="none" id="svg_220" stroke="#ffffff" stroke-width="3" x1="223.32" x2="397.02" y1="412.43" y2="254.56"/>
    <text fill="#000000" font-family="Helvetica" font-size="119.08" id="svg_221" stroke="#000000" stroke-width="0" text-anchor="middle" x="347.98" xml:space="preserve" y="412.53">=</text>
    <text fill="#000000" font-family="Helvetica" font-size="119.08" id="svg_222" stroke="#000000" stroke-width="0" text-anchor="middle" x="271.36" xml:space="preserve" y="354.33"/>
    <text fill="#ffffff" font-family="Helvetica" font-size="119.08" id="svg_223" stroke="#000000" stroke-width="0" text-anchor="middle" x="347.98" xml:space="preserve" y="412.53">=</text>
    <text fill="#ffffff" font-family="Helvetica" font-size="130.56" id="svg_224" stroke="#000000" stroke-width="0" text-anchor="middle" x="278.32" xml:space="preserve" y="351.19">~</text>
   </g>
   <line fill="none" id="svg_225" stroke="#000000" x1="213.69" x2="213.69" y1="114.1" y2="207.13"/>
   <line fill="none" id="svg_226" stroke="#000000" x1="213.2" x2="213.13" y1="266.64" y2="357.58"/>
   <rect fill="#ff0000" height="85" id="svg_227" stroke="#000000" stroke-opacity="0" transform="matrix(0.294118 0 0 0.294118 880.137 591.145) matrix(1 0 0 1 -2334.38 -1790.08)" width="85" x="23.06" y="861.03"/>
   <rect fill="#ff0000" height="85" id="svg_228" stroke="#000000" stroke-opacity="0" transform="matrix(0.294118 0 0 0.294118 880.137 591.145) matrix(1 0 0 1 -2334.38 -1790.08)" width="85" x="22.91" y="188.17"/>
  </g>
  <g id="svg_229" transform="translate(-80.4878 4.87805) translate(1140 206.667) translate(7.31707 0) matrix(1 0 0 1 -729.185 283.722)">
   <g id="svg_230" transform="translate(4.0404 -95.9596) matrix(0.376695 0 0 0.376695 91.245 207.466)">
    <rect fill="#ff0000" height="158.28" id="svg_231" stroke="#000000" stroke-opacity="0" width="173.23" x="223.61" y="254.37">~=</rect>
    <line fill="none" id="svg_232" stroke="#ffffff" stroke-width="3" x1="223.32" x2="397.02" y1="412.43" y2="254.56"/>
    <text fill="#000000" font-family="Helvetica" font-size="119.08" id="svg_233" stroke="#000000" stroke-width="0" text-anchor="middle" x="347.98" xml:space="preserve" y="412.53">=</text>
    <text fill="#000000" font-family="Helvetica" font-size="119.08" id="svg_234" stroke="#000000" stroke-width="0" text-anchor="middle" x="271.36" xml:space="preserve" y="354.33"/>
    <text fill="#ffffff" font-family="Helvetica" font-size="119.08" id="svg_235" stroke="#000000" stroke-width="0" text-anchor="middle" x="347.98" xml:space="preserve" y="412.53">=</text>
    <text fill="#ffffff" font-family="Helvetica" font-size="130.56" id="svg_236" stroke="#000000" stroke-width="0" text-anchor="middle" x="278.32" xml:space="preserve" y="351.19">~</text>
   </g>
   <line fill="none" id="svg_237" stroke="#000000" x1="213.69" x2="213.69" y1="114.1" y2="207.13"/>
   <line fill="none" id="svg_238" stroke="#000000" x1="213.2" x2="213.13" y1="266.64" y2="357.58"/>
   <rect fill="#ff0000" height="85" id="svg_239" stroke="#000000" stroke-opacity="0" transform="matrix(0.294118 0 0 0.294118 880.137 591.145) matrix(1 0 0 1 -2334.38 -1790.08)" width="85" x="23.06" y="861.03"/>
   <rect fill="#ff0000" height="85" id="svg_240" stroke="#000000" stroke-opacity="0" transform="matrix(0.294118 0 0 0.294118 880.137 591.145) matrix(1 0 0 1 -2334.38 -1790.08)" width="85" x="22.91" y="188.17"/>
  </g>
  <g id="svg_242" transform="translate(-80.4878 4.87805) translate(1140 206.667) translate(7.31707 0) translate(4.0404 -95.9596) matrix(0.376695 0 0 0.376695 -38.7968 270.852) matrix(1 0 0 1 12.9496 -6.4748) matrix(1 0 0 1 -1294.96 602.156)">
   <rect fill="#ff0000" height="158.28" id="svg_243" stroke="#000000" stroke-opacity="0" width="173.23" x="223.61" y="254.37">~=</rect>
   <line fill="none" id="svg_244" stroke="#ffffff" stroke-width="3" x1="223.32" x2="397.02" y1="412.43" y2="254.56"/>
   <text fill="#000000" font-family="Helvetica" font-size="119.08" id="svg_245" stroke="#000000" stroke-width="0" text-anchor="middle" x="347.98" xml:space="preserve" y="412.53">=</text>
   <text fill="#000000" font-family="Helvetica" font-size="119.08" id="svg_246" stroke="#000000" stroke-width="0" text-anchor="middle" x="271.36" xml:space="preserve" y="354.33"/>
   <text fill="#ffffff" font-family="Helvetica" font-size="119.08" id="svg_247" stroke="#000000" stroke-width="0" text-anchor="middle" x="347.98" xml:space="preserve" y="412.53">=</text>
   <text fill="#ffffff" font-family="Helvetica" font-size="130.56" id="svg_248" stroke="#000000" stroke-width="0" text-anchor="middle" x="278.32" xml:space="preserve" y="351.19">~</text>
  </g>
  <line fill="none" id="svg_249" stroke="#000000" x1="667.55" x2="667.55" y1="613.42" y2="706.45"/>
  <line fill="none" id="svg_250" stroke="#000000" x1="667.06" x2="666.99" y1="765.96" y2="856.9"/>
  <rect fill="#ff0000" height="85" id="svg_251" stroke="#000000" stroke-opacity="0" transform="matrix(0.294118 0 0 0.294118 880.137 591.145) matrix(1 0 0 1 -2334.38 -1790.08) matrix(1 0 0 1 -442.142 215.511) matrix(1 0 0 1 16.5853 -8.29267) matrix(1 0 0 1 -1658.53 771.219)" width="85" x="3650.27" y="1580.28"/>
  <rect fill="#ff0000" height="85" id="svg_252" stroke="#000000" stroke-opacity="0" transform="matrix(0.294118 0 0 0.294118 880.137 591.145) matrix(1 0 0 1 -2334.38 -1790.08) matrix(1 0 0 1 -442.142 215.511) matrix(1 0 0 1 16.5853 -8.29267) matrix(1 0 0 1 -1658.53 771.219)" width="85" x="3650.13" y="907.43"/>
  <g id="svg_259" transform="translate(-80.4878 4.87805) translate(1140 206.667) matrix(0.744363 0 0 0.744363 -12.6114 184.986)">
   <circle cx="-840.65" cy="108.94" fill="none" id="svg_257" r="45.83" stroke="#ff0000" stroke-width="5"/>
   <circle cx="-840" cy="148.99" fill="none" id="svg_258" r="45.83" stroke="#ff0000" stroke-width="5"/>
  </g>
  <line fill="none" id="svg_260" stroke="#000000" x1="422.73" x2="422.73" y1="542.9" y2="607.55"/>
  <rect fill="#ff0000" height="85" id="svg_262" stroke="#000000" stroke-opacity="0" transform="matrix(0.294118 0 0 0.294118 880.137 591.145) matrix(1 0 0 1 -5225.27 -1547.81)" width="85" x="3627.54" y="1495.82"/>
  <g id="svg_264" transform="translate(-80.4878 4.87805) translate(375.676 -116.216) translate(770.64 290.048) matrix(0.744363 0 0 0.744363 1127.39 391.653)">
   <circle cx="-840.65" cy="108.94" fill="none" id="svg_265" r="45.83" stroke="#ff0000" stroke-width="5"/>
   <circle cx="-840" cy="148.99" fill="none" id="svg_266" r="45.83" stroke="#ff0000" stroke-width="5"/>
  </g>
  <circle cx="547.09" cy="267.71" fill="#000000" id="svg_269" r="4.07" stroke="#000000">AVR&lt;path d=&quot;m6.5 7.5h4l-6 9v-6.997l-4-.003 6-9z&quot; fill=&quot;red&quot; stroke=&quot;red&quot; transform=&quot;translate(6 4)&quot; stroke-width=&quot;1&quot; vector-effect=&quot;non-scaling-stroke&quot;/&gt;</circle>
  <g id="svg_272" transform="translate(-80.4878 4.87805) translate(-248.485 -2.0202) translate(-1.0101 0) matrix(0.74802 0 0 0.74802 382.732 140.44)">
   <rect fill="#ff0000" height="76.36" id="svg_270" stroke="#000000" stroke-opacity="0" transform="matrix(1 0 0 1 0 0) matrix(1 0 0 1 0 0) matrix(1 0 0 1 0 0)" width="76.36" x="562.42" y="129.7"/>
   <text fill="#ffffff" font-family="Helvetica" font-size="28.06" font-weight="bold" id="svg_271" stroke="#000000" stroke-opacity="0" stroke-width="0" text-anchor="middle" x="601.74" xml:space="preserve" y="181.18">AVR</text>
  </g>
  <circle cx="643.34" cy="268.32" fill="#000000" id="svg_8" r="4.07" stroke="#000000">AVR&lt;path d=&quot;m6.5 7.5h4l-6 9v-6.997l-4-.003 6-9z&quot; fill=&quot;red&quot; stroke=&quot;red&quot; transform=&quot;translate(6 4)&quot; stroke-width=&quot;1&quot; vector-effect=&quot;non-scaling-stroke&quot;/&gt;</circle>
  <line fill="none" id="svg_63" stroke="#000000" x1="530.52" x2="543.03" y1="267.47" y2="267.56"/>
  <g id="svg_68" transform="translate(-80.4878 4.87805) translate(-248.485 -2.0202) translate(-1.0101 0) translate(-1.0101 0) translate(-1.0101 0) translate(-1.0101 0) translate(-1.0101 0) translate(-1.0101 0) translate(-1.0101 0) translate(-1.0101 0) translate(-1.0101 0) translate(-1.0101 0) translate(-1.0101 0) translate(-1.0101 0) translate(-1.0101 0) translate(-1.0101 0) translate(-1.0101 0) translate(-1.0101 0) translate(-1.0101 0) translate(-1.0101 0) translate(-1.0101 0) translate(-1.0101 0) translate(-1.0101 0) translate(-1.0101 0) translate(-1.0101 0) translate(-1.0101 0) translate(-1.0101 0) translate(-1.0101 0) translate(-1.0101 0) translate(-1.0101 0) translate(-1.0101 0) translate(-1.0101 0) translate(-1.0101 0) translate(-1.0101 0) translate(-1.0101 0) translate(-1.0101 0) translate(-1.0101 0) translate(-1.0101 0) translate(-1.0101 0) translate(-1.0101 0) translate(-1.0101 0) translate(-1.0101 0) translate(-1.0101 0) translate(-1.0101 0) translate(-1.0101 0) translate(-1.0101 0) translate(-1.0101 0) translate(-1.0101 0) translate(-1.0101 0) translate(-1.0101 0) translate(-1.0101 0) translate(-1.0101 0) translate(-27.9646 -1.06195)">
   <rect fill="#ff0000" height="85" id="svg_66" stroke="#000000" stroke-opacity="0" transform="matrix(0.294118 0 0 0.294118 880.137 591.145) matrix(1 0 0 1 287.972 -1925.55)" width="85" x="25.2" y="776.56"/>
   <text fill="#ffffff" font-family="Helvetica" font-size="14" font-weight="bold" id="svg_67" stroke="#000000" stroke-opacity="0" stroke-width="0" text-anchor="middle" transform="matrix(1 0 0 1 204.112 -358.703)" x="780.88" xml:space="preserve" y="628.88">R</text>
  </g>
  <line fill="none" id="svg_131" stroke="#000000" x1="551.09" x2="564.6" y1="267.7" y2="267.7"/>
  <line fill="none" id="svg_111" stroke="#000000" x1="589.34" x2="608.31" y1="267.73" y2="267.73"/>
  <line fill="none" id="svg_113" stroke="#000000" x1="607.27" x2="627.13" y1="267.94" y2="244.04"/>
  <line fill="none" id="svg_119" stroke="#000000" x1="626.82" x2="639.52" y1="268.45" y2="268.45"/>
  <line fill="none" id="svg_134" stroke="#000000" x1="473.09" x2="455.25" y1="268.56" y2="268.56"/>
  <line fill="none" id="svg_135" stroke="#000000" x1="455.43" x2="437.86" y1="268.78" y2="248.86"/>
  <line fill="none" id="svg_136" stroke="#000000" x1="437.62" x2="425.61" y1="269.29" y2="269.29"/>
  <circle cx="702.48" cy="268.4" fill="#000000" id="svg_137" r="4.07" stroke="#000000">AVR&lt;path d=&quot;m6.5 7.5h4l-6 9v-6.997l-4-.003 6-9z&quot; fill=&quot;red&quot; stroke=&quot;red&quot; transform=&quot;translate(6 4)&quot; stroke-width=&quot;1&quot; vector-effect=&quot;non-scaling-stroke&quot;/&gt;</circle>
  <line fill="none" id="svg_138" stroke="#000000" x1="643.58" x2="700.78" y1="268.5" y2="268.5"/>
  <circle cx="872.23" cy="267.93" fill="#000000" id="svg_139" r="4.07" stroke="#000000">AVR&lt;path d=&quot;m6.5 7.5h4l-6 9v-6.997l-4-.003 6-9z&quot; fill=&quot;red&quot; stroke=&quot;red&quot; transform=&quot;translate(6 4)&quot; stroke-width=&quot;1&quot; vector-effect=&quot;non-scaling-stroke&quot;/&gt;</circle>
  <g id="svg_145" transform="translate(-80.4878 4.87805) translate(-248.485 -2.0202) translate(-1.0101 0) translate(-1.0101 0) translate(-1.0101 0) translate(-1.0101 0) translate(-1.0101 0) translate(-1.0101 0) translate(-1.0101 0) translate(-1.0101 0) translate(-1.0101 0) translate(-1.0101 0) translate(-1.0101 0) translate(-1.0101 0) translate(-1.0101 0) translate(-1.0101 0) translate(-1.0101 0) translate(-1.0101 0) translate(-1.0101 0) translate(-1.0101 0) translate(-1.0101 0) translate(-1.0101 0) translate(-1.0101 0) translate(-1.0101 0) translate(-1.0101 0) translate(-1.0101 0) translate(-1.0101 0) translate(-1.0101 0) translate(-1.0101 0) translate(-1.0101 0) translate(-1.0101 0) translate(-1.0101 0) translate(-1.0101 0) translate(-1.0101 0) translate(-1.0101 0) translate(-1.0101 0) translate(-1.0101 0) translate(-1.0101 0) translate(-1.0101 0) translate(-1.0101 0) translate(-1.0101 0) translate(-1.0101 0) translate(-1.0101 0) translate(-1.0101 0) translate(-1.0101 0) translate(-1.0101 0) translate(-1.0101 0) translate(-1.0101 0) translate(-1.0101 0) translate(-1.0101 0) translate(-1.0101 0) translate(-1.0101 0) translate(-2.24719 28.0899) matrix(1 0 0 1 33.7079 79.7753)">
   <line fill="none" id="svg_140" stroke="#000000" x1="1097.84" x2="1080.26" y1="157.38" y2="137.46"/>
   <line fill="none" id="svg_141" stroke="#000000" x1="1097.56" x2="1170.17" y1="157.16" y2="157.16"/>
   <line fill="none" id="svg_142" stroke="#000000" x1="1170.09" x2="1190.01" y1="157.11" y2="137.19"/>
   <line fill="none" id="svg_143" stroke="#000000" x1="1080.11" x2="1051.81" y1="156.91" y2="156.91"/>
   <line fill="none" id="svg_144" stroke="#000000" x1="1218.47" x2="1190.17" y1="157.19" y2="157.19"/>
  </g>
  <circle cx="922.1" cy="267.8" fill="#000000" id="svg_147" r="4.07" stroke="#000000">AVR&lt;path d=&quot;m6.5 7.5h4l-6 9v-6.997l-4-.003 6-9z&quot; fill=&quot;red&quot; stroke=&quot;red&quot; transform=&quot;translate(6 4)&quot; stroke-width=&quot;1&quot; vector-effect=&quot;non-scaling-stroke&quot;/&gt;</circle>
  <line fill="none" id="svg_149" stroke="#000000" x1="876.84" x2="917.53" y1="267.9" y2="267.9"/>
  <circle cx="1160.9" cy="264.98" fill="#000000" id="svg_150" r="4.07" stroke="#000000">AVR&lt;path d=&quot;m6.5 7.5h4l-6 9v-6.997l-4-.003 6-9z&quot; fill=&quot;red&quot; stroke=&quot;red&quot; transform=&quot;translate(6 4)&quot; stroke-width=&quot;1&quot; vector-effect=&quot;non-scaling-stroke&quot;/&gt;</circle>
  <circle cx="1046.68" cy="265.64" fill="#000000" id="svg_170" r="4.07" stroke="#000000">AVR&lt;path d=&quot;m6.5 7.5h4l-6 9v-6.997l-4-.003 6-9z&quot; fill=&quot;red&quot; stroke=&quot;red&quot; transform=&quot;translate(6 4)&quot; stroke-width=&quot;1&quot; vector-effect=&quot;non-scaling-stroke&quot;/&gt;</circle>
  <g id="svg_167" transform="translate(-80.4878 4.87805) translate(-248.485 -2.0202) translate(-1.0101 0) translate(-1.0101 0) translate(-1.0101 0) translate(-1.0101 0) translate(-1.0101 0) translate(-1.0101 0) translate(-1.0101 0) translate(-1.0101 0) translate(-1.0101 0) translate(-1.0101 0) translate(-1.0101 0) translate(-1.0101 0) translate(-1.0101 0) translate(-1.0101 0) translate(-1.0101 0) translate(-1.0101 0) translate(-1.0101 0) translate(-1.0101 0) translate(-1.0101 0) translate(-1.0101 0) translate(-1.0101 0) translate(-1.0101 0) translate(-1.0101 0) translate(-1.0101 0) translate(-1.0101 0) translate(-1.0101 0) translate(-1.0101 0) translate(-1.0101 0) translate(-1.0101 0) translate(-1.0101 0) translate(-1.0101 0) translate(-1.0101 0) translate(-1.0101 0) translate(-1.0101 0) translate(-1.0101 0) translate(-1.0101 0) translate(-1.0101 0) translate(-1.0101 0) translate(-1.0101 0) translate(-1.0101 0) translate(-1.0101 0) translate(-1.0101 0) translate(-1.0101 0) translate(-1.0101 0) translate(-1.0101 0) translate(-1.0101 0) translate(-1.0101 0) translate(-1.0101 0) translate(-1.0101 0) translate(-1.0101 0) translate(179.775 -18.5393) translate(319.816 16.4707) matrix(0.74802 0 0 0.74802 432.227 140.44)">
   <rect fill="#ff0000" height="76.36" id="svg_168" stroke="#000000" stroke-opacity="0" transform="matrix(1 0 0 1 0 0) matrix(1 0 0 1 0 0) matrix(1 0 0 1 0 0)" width="76.36" x="562.42" y="129.7"/>
   <text fill="#ffffff" font-family="Helvetica" font-size="28.06" font-weight="bold" id="svg_169" stroke="#000000" stroke-opacity="0" stroke-width="0" text-anchor="middle" x="601.74" xml:space="preserve" y="181.18">AVR</text>
  </g>
  <line fill="none" id="svg_166" stroke="#000000" x1="1030.11" x2="1042.62" y1="265.4" y2="265.49"/>
  <g id="svg_163" transform="translate(-80.4878 4.87805) matrix(1 0 0 1 172.637 -5.15075)">
   <rect fill="#ff0000" height="85" id="svg_164" stroke="#000000" stroke-opacity="0" transform="matrix(0.294118 0 0 0.294118 880.137 591.145) matrix(1 0 0 1 287.972 -1925.55)" width="85" x="25.2" y="776.56"/>
   <text fill="#ffffff" font-family="Helvetica" font-size="14" font-weight="bold" id="svg_165" stroke="#000000" stroke-opacity="0" stroke-width="0" text-anchor="middle" transform="matrix(1 0 0 1 204.112 -358.703)" x="780.88" xml:space="preserve" y="628.88">R</text>
  </g>
  <line fill="none" id="svg_162" stroke="#000000" x1="1050.68" x2="1064.19" y1="265.63" y2="265.63"/>
  <line fill="none" id="svg_161" stroke="#000000" x1="1088.93" x2="1107.9" y1="265.66" y2="265.66"/>
  <line fill="none" id="svg_160" stroke="#000000" x1="1106.86" x2="1126.72" y1="265.88" y2="241.97"/>
  <line fill="none" id="svg_159" stroke="#000000" x1="972.68" x2="954.84" y1="266.49" y2="266.49"/>
  <line fill="none" id="svg_152" stroke="#000000" x1="955.02" x2="937.45" y1="266.71" y2="246.79"/>
  <line fill="none" id="svg_151" stroke="#000000" x1="937.21" x2="925.2" y1="267.22" y2="267.22"/>
  <line fill="none" id="svg_171" stroke="#000000" x1="1159.88" x2="1126.17" y1="265.32" y2="265.32"/>
  <circle cx="1223.29" cy="266.57" fill="#000000" id="svg_275" r="4.07" stroke="#000000">AVR&lt;path d=&quot;m6.5 7.5h4l-6 9v-6.997l-4-.003 6-9z&quot; fill=&quot;red&quot; stroke=&quot;red&quot; transform=&quot;translate(6 4)&quot; stroke-width=&quot;1&quot; vector-effect=&quot;non-scaling-stroke&quot;/&gt;</circle>
  <line fill="none" id="svg_274" stroke="#000000" x1="1164.39" x2="1221.59" y1="266.68" y2="266.68"/>
  <circle cx="1393.04" cy="266.1" fill="#000000" id="svg_273" r="4.07" stroke="#000000">AVR&lt;path d=&quot;m6.5 7.5h4l-6 9v-6.997l-4-.003 6-9z&quot; fill=&quot;red&quot; stroke=&quot;red&quot; transform=&quot;translate(6 4)&quot; stroke-width=&quot;1&quot; vector-effect=&quot;non-scaling-stroke&quot;/&gt;</circle>
  <circle cx="1442.91" cy="265.97" fill="#000000" id="svg_263" r="4.07" stroke="#000000">AVR&lt;path d=&quot;m6.5 7.5h4l-6 9v-6.997l-4-.003 6-9z&quot; fill=&quot;red&quot; stroke=&quot;red&quot; transform=&quot;translate(6 4)&quot; stroke-width=&quot;1&quot; vector-effect=&quot;non-scaling-stroke&quot;/&gt;</circle>
  <line fill="none" id="svg_261" stroke="#000000" x1="1397.65" x2="1438.34" y1="266.07" y2="266.07"/>
  <circle cx="1538.93" cy="264.39" fill="#000000" id="svg_256" r="4.07" stroke="#000000" transform="matrix(1 0 0 1 0 0)">AVR&lt;path d=&quot;m6.5 7.5h4l-6 9v-6.997l-4-.003 6-9z&quot; fill=&quot;red&quot; stroke=&quot;red&quot; transform=&quot;translate(6 4)&quot; stroke-width=&quot;1&quot; vector-effect=&quot;non-scaling-stroke&quot;/&gt;</circle>
  <g id="svg_253" transform="translate(3.9548 -18.0791) matrix(0.74802 0 0 0.74802 1131.1 157.565)">
   <rect fill="#ff0000" height="76.36" id="svg_254" stroke="#000000" stroke-opacity="0" transform="matrix(1 0 0 1 0 0) matrix(1 0 0 1 0 0) matrix(1 0 0 1 0 0)" width="76.36" x="562.42" y="129.7"/>
   <text fill="#ffffff" font-family="Helvetica" font-size="28.06" font-weight="bold" id="svg_255" stroke="#000000" stroke-opacity="0" stroke-width="0" text-anchor="middle" x="601.74" xml:space="preserve" y="181.18">AVR</text>
  </g>
  <line fill="none" id="svg_200" stroke="#000000" transform="matrix(1 0 0 1 0 0)" x1="1613.44" x2="1632.41" y1="263.83" y2="263.83"/>
  <line fill="none" id="svg_179" stroke="#000000" x1="1632.79" x2="1652.65" y1="263.69" y2="239.79"/>
  <line fill="none" id="svg_177" stroke="#000000" x1="1493.5" x2="1475.65" y1="264.66" y2="264.66"/>
  <line fill="none" id="svg_176" stroke="#000000" x1="1475.84" x2="1458.26" y1="264.88" y2="244.96"/>
  <line fill="none" id="svg_174" stroke="#000000" x1="1458.02" x2="1446.01" y1="265.39" y2="265.39"/>
  <line fill="none" id="svg_172" stroke="#000000" x1="1683.88" x2="1653.7" y1="263.83" y2="263.83"/>
  <g id="svg_276" transform="translate(-80.4878 4.87805) translate(-248.485 -2.0202) translate(-1.0101 0) translate(-1.0101 0) translate(-1.0101 0) translate(-1.0101 0) translate(-1.0101 0) translate(-1.0101 0) translate(-1.0101 0) translate(-1.0101 0) translate(-1.0101 0) translate(-1.0101 0) translate(-1.0101 0) translate(-1.0101 0) translate(-1.0101 0) translate(-1.0101 0) translate(-1.0101 0) translate(-1.0101 0) translate(-1.0101 0) translate(-1.0101 0) translate(-1.0101 0) translate(-1.0101 0) translate(-1.0101 0) translate(-1.0101 0) translate(-1.0101 0) translate(-1.0101 0) translate(-1.0101 0) translate(-1.0101 0) translate(-1.0101 0) translate(-1.0101 0) translate(-1.0101 0) translate(-1.0101 0) translate(-1.0101 0) translate(-1.0101 0) translate(-1.0101 0) translate(-1.0101 0) translate(-1.0101 0) translate(-1.0101 0) translate(-1.0101 0) translate(-1.0101 0) translate(-1.0101 0) translate(-1.0101 0) translate(-1.0101 0) translate(-1.0101 0) translate(-1.0101 0) translate(-1.0101 0) translate(-1.0101 0) translate(-1.0101 0) translate(-1.0101 0) translate(-1.0101 0) translate(-1.0101 0) translate(-1.0101 0) translate(353.371 -26.4045) translate(169.164 24.3495) matrix(1 0 0 1 31.4607 107.865)">
   <line fill="none" id="svg_277" stroke="#000000" x1="1097.84" x2="1080.26" y1="157.38" y2="137.46"/>
   <line fill="none" id="svg_278" stroke="#000000" x1="1097.56" x2="1170.17" y1="157.16" y2="157.16"/>
   <line fill="none" id="svg_279" stroke="#000000" x1="1170.09" x2="1190.01" y1="157.11" y2="137.19"/>
   <line fill="none" id="svg_280" stroke="#000000" x1="1080.11" x2="1051.81" y1="156.91" y2="156.91"/>
   <line fill="none" id="svg_281" stroke="#000000" x1="1218.47" x2="1190.17" y1="157.19" y2="157.19"/>
  </g>
  <circle cx="1685.97" cy="263.99" fill="#000000" id="svg_288" r="4.07" stroke="#000000">AVR&lt;path d=&quot;m6.5 7.5h4l-6 9v-6.997l-4-.003 6-9z&quot; fill=&quot;red&quot; stroke=&quot;red&quot; transform=&quot;translate(6 4)&quot; stroke-width=&quot;1&quot; vector-effect=&quot;non-scaling-stroke&quot;/&gt;</circle>
  <line fill="none" id="svg_289" stroke="#000000" x1="1688.71" x2="1781.95" y1="263.9" y2="263.9"/>
  <line fill="none" id="svg_290" stroke="#000000" x1="1780.75" x2="1780.75" y1="264.05" y2="140.5"/>
  <line fill="none" id="svg_291" stroke="#000000" x1="1780.93" x2="1800.79" y1="140.64" y2="116.73"/>
  <line fill="none" id="svg_292" stroke="#000000" x1="1779.3" x2="1779.3" y1="114.3" y2="95.25"/>
  <text fill="#000000" font-family="Helvetica" font-size="28" font-weight="bold" id="svg_293" stroke="#000000" stroke-width="0" text-anchor="middle" x="1777.34" xml:space="preserve" y="70.85">22 KV MAE SOT 5</text>
  <text fill="#000000" font-family="Helvetica" font-size="28" font-weight="bold" id="svg_294" stroke="#000000" stroke-width="0" text-anchor="middle" x="1733.6" xml:space="preserve" y="376.1">22 KV UMPHANG</text>
  <text fill="#000000" font-family="Helvetica" font-size="28" font-weight="bold" id="svg_295" stroke="#000000" stroke-width="0" text-anchor="middle" x="118.13" xml:space="preserve" y="579.88">BESS</text>
  <text fill="#000000" font-family="Helvetica" font-size="24" font-weight="bold" id="svg_296" stroke="#000000" stroke-width="0" text-anchor="middle" x="288.72" xml:space="preserve" y="499.37">22 / 0.4 kV TR</text>
  <text fill="#000000" font-family="Helvetica" font-size="24" font-weight="bold" id="svg_297" stroke="#000000" stroke-width="0" text-anchor="middle" x="1721.38" xml:space="preserve" y="675.01">22 / 0.4 kV TR</text>
  <text fill="#000000" font-family="Helvetica" font-size="28" font-weight="bold" id="svg_298" stroke="#000000" stroke-width="0" text-anchor="middle" x="1172.7" xml:space="preserve" y="813.23">DIESEL GENERATOR</text>
  <line fill="none" id="svg_299" stroke="#000000" x1="420.35" x2="420.35" y1="370.7" y2="404.2"/>
  <line fill="none" id="svg_300" stroke="#000000" x1="420.59" x2="420.59" y1="428.66" y2="442.44"/>
  <line fill="none" id="svg_301" stroke="#000000" x1="1569.39" x2="1569.39" y1="405.93" y2="372.62"/>
  <g id="svg_302" transform="matrix(1 0 0 1 0 0) translate(-1.8 -0.2) translate(0 3.36134) matrix(1 0 0 1 522.909 -4.21596)">
   <rect fill="#ff0000" height="85" id="svg_303" stroke="#000000" stroke-opacity="0" transform="matrix(0.294118 0 0 0.294118 880.137 591.145) matrix(1 0 0 1 287.972 -1925.55)" width="85" x="25.2" y="776.56"/>
   <text fill="#ffffff" font-family="Helvetica" font-size="14" font-weight="bold" id="svg_304" stroke="#000000" stroke-opacity="0" stroke-width="0" text-anchor="middle" transform="matrix(1 0 0 1 204.112 -358.703)" x="780.88" xml:space="preserve" y="628.88">R</text>
  </g>
  <line fill="none" id="svg_305" stroke="#000000" x1="1534.21" x2="1518.55" y1="264.45" y2="264.45"/>
  <line fill="none" id="svg_306" stroke="#000000" transform="matrix(1 0 0 1 0 0)" x1="1538.58" x2="1555.61" y1="264.66" y2="264.66"/>
  <line fill="none" id="svg_307" stroke="#000000" x1="420.79" x2="398.58" y1="353.75" y2="331.54"/>
  <line fill="none" id="svg_21" stroke="#000000" x1="420.39" x2="397.45" y1="428.63" y2="405.69"/>
  <line fill="none" id="svg_23" stroke="#000000" x1="1568.86" x2="1545.62" y1="431.06" y2="407.81"/>
  <circle cx="880.58" cy="493.37" fill="#000000" id="svg_25" r="4.07" stroke="#000000" transform="matrix(1 0 0 1 0 0)"/>
  <circle cx="420.26" cy="369.55" fill="#000000" id="svg_27" r="4.07" stroke="#000000"/>
 </g>
</svg>